<?xml version="1.0" encoding="UTF-8"?>
<!DOCTYPE svg PUBLIC "-//W3C//DTD SVG 1.1//EN" "http://www.w3.org/Graphics/SVG/1.1/DTD/svg11.dtd">
<svg xmlns="http://www.w3.org/2000/svg" xmlns:xlink="http://www.w3.org/1999/xlink" version="1.1" width="523px" height="1121px" viewBox="-0.5 -0.5 523 1121"><defs/><g><ellipse cx="20" cy="20" rx="20" ry="20" fill="#eeeeee" stroke="#eeeeee" pointer-events="all"/><ellipse cx="140" cy="20" rx="20" ry="20" fill="#eeeeee" stroke="#eeeeee" pointer-events="all"/><ellipse cx="260" cy="20" rx="20" ry="20" fill="#eeeeee" stroke="#eeeeee" pointer-events="all"/><ellipse cx="381" cy="20" rx="20" ry="20" fill="#eeeeee" stroke="#eeeeee" pointer-events="all"/><ellipse cx="501" cy="20" rx="20" ry="20" fill="#eeeeee" stroke="#eeeeee" pointer-events="all"/><ellipse cx="20" cy="140" rx="20" ry="20" fill="#eeeeee" stroke="#eeeeee" pointer-events="all"/><ellipse cx="140" cy="140" rx="20" ry="20" fill="#eeeeee" stroke="#eeeeee" pointer-events="all"/><ellipse cx="260" cy="140" rx="20" ry="20" fill="#eeeeee" stroke="#eeeeee" pointer-events="all"/><ellipse cx="381" cy="140" rx="20" ry="20" fill="#eeeeee" stroke="#eeeeee" pointer-events="all"/><ellipse cx="501" cy="140" rx="20" ry="20" fill="#eeeeee" stroke="#eeeeee" pointer-events="all"/><ellipse cx="20" cy="259" rx="20" ry="20" fill="#eeeeee" stroke="#eeeeee" pointer-events="all"/><ellipse cx="140" cy="259" rx="20" ry="20" fill="#eeeeee" stroke="#eeeeee" pointer-events="all"/><ellipse cx="260" cy="259" rx="20" ry="20" fill="#eeeeee" stroke="#eeeeee" pointer-events="all"/><ellipse cx="381" cy="259" rx="20" ry="20" fill="#eeeeee" stroke="#eeeeee" pointer-events="all"/><ellipse cx="501" cy="259" rx="20" ry="20" fill="#eeeeee" stroke="#eeeeee" pointer-events="all"/><ellipse cx="20" cy="379" rx="20" ry="20" fill="#eeeeee" stroke="#eeeeee" pointer-events="all"/><ellipse cx="140" cy="379" rx="20" ry="20" fill="#eeeeee" stroke="#eeeeee" pointer-events="all"/><ellipse cx="260" cy="379" rx="20" ry="20" fill="#eeeeee" stroke="#eeeeee" pointer-events="all"/><ellipse cx="381" cy="379" rx="20" ry="20" fill="#eeeeee" stroke="#eeeeee" pointer-events="all"/><ellipse cx="501" cy="379" rx="20" ry="20" fill="#eeeeee" stroke="#eeeeee" pointer-events="all"/><ellipse cx="20" cy="499" rx="20" ry="20" fill="#eeeeee" stroke="#eeeeee" pointer-events="all"/><ellipse cx="140" cy="499" rx="20" ry="20" fill="#eeeeee" stroke="#eeeeee" pointer-events="all"/><ellipse cx="260" cy="499" rx="20" ry="20" fill="#eeeeee" stroke="#eeeeee" pointer-events="all"/><ellipse cx="381" cy="499" rx="20" ry="20" fill="#eeeeee" stroke="#eeeeee" pointer-events="all"/><ellipse cx="501" cy="499" rx="20" ry="20" fill="#eeeeee" stroke="#eeeeee" pointer-events="all"/><ellipse cx="20" cy="619" rx="20" ry="20" fill="#eeeeee" stroke="#eeeeee" pointer-events="all"/><ellipse cx="140" cy="619" rx="20" ry="20" fill="#eeeeee" stroke="#eeeeee" pointer-events="all"/><ellipse cx="260" cy="619" rx="20" ry="20" fill="#eeeeee" stroke="#eeeeee" pointer-events="all"/><ellipse cx="381" cy="619" rx="20" ry="20" fill="#eeeeee" stroke="#eeeeee" pointer-events="all"/><ellipse cx="501" cy="619" rx="20" ry="20" fill="#eeeeee" stroke="#eeeeee" pointer-events="all"/><ellipse cx="20" cy="740" rx="20" ry="20" fill="#eeeeee" stroke="#eeeeee" pointer-events="all"/><ellipse cx="140" cy="740" rx="20" ry="20" fill="#eeeeee" stroke="#eeeeee" pointer-events="all"/><ellipse cx="260" cy="740" rx="20" ry="20" fill="#eeeeee" stroke="#eeeeee" pointer-events="all"/><ellipse cx="381" cy="740" rx="20" ry="20" fill="#eeeeee" stroke="#eeeeee" pointer-events="all"/><ellipse cx="501" cy="740" rx="20" ry="20" fill="#eeeeee" stroke="#eeeeee" pointer-events="all"/><ellipse cx="20" cy="860" rx="20" ry="20" fill="#eeeeee" stroke="#eeeeee" pointer-events="all"/><ellipse cx="140" cy="860" rx="20" ry="20" fill="#eeeeee" stroke="#eeeeee" pointer-events="all"/><ellipse cx="260" cy="860" rx="20" ry="20" fill="#eeeeee" stroke="#eeeeee" pointer-events="all"/><ellipse cx="381" cy="860" rx="20" ry="20" fill="#eeeeee" stroke="#eeeeee" pointer-events="all"/><ellipse cx="501" cy="860" rx="20" ry="20" fill="#eeeeee" stroke="#eeeeee" pointer-events="all"/><ellipse cx="20" cy="979" rx="20" ry="20" fill="#eeeeee" stroke="#eeeeee" pointer-events="all"/><ellipse cx="140" cy="979" rx="20" ry="20" fill="#eeeeee" stroke="#eeeeee" pointer-events="all"/><ellipse cx="260" cy="979" rx="20" ry="20" fill="#eeeeee" stroke="#eeeeee" pointer-events="all"/><ellipse cx="381" cy="979" rx="20" ry="20" fill="#eeeeee" stroke="#eeeeee" pointer-events="all"/><ellipse cx="501" cy="979" rx="20" ry="20" fill="#eeeeee" stroke="#eeeeee" pointer-events="all"/><ellipse cx="20" cy="1099" rx="20" ry="20" fill="#eeeeee" stroke="#eeeeee" pointer-events="all"/><ellipse cx="140" cy="1099" rx="20" ry="20" fill="#eeeeee" stroke="#eeeeee" pointer-events="all"/><ellipse cx="260" cy="1099" rx="20" ry="20" fill="#eeeeee" stroke="#eeeeee" pointer-events="all"/><ellipse cx="381" cy="1099" rx="20" ry="20" fill="#eeeeee" stroke="#eeeeee" pointer-events="all"/><ellipse cx="501" cy="1099" rx="20" ry="20" fill="#eeeeee" stroke="#eeeeee" pointer-events="all"/></g></svg>